<svg width="591.201" height="591.202" xmlns="http://www.w3.org/2000/svg" fill="#7e4cd7">

 <g>
  <title>Layer 1</title>
  <path id="svg_1" d="m533.7,201.85c1.899,-7.7 1.899,-13.4 1.899,-21c0,-53.5 -42.1,-95.6 -95.6,-95.6c-36.3,0 -66.9,19.1 -84.1,47.8c-11.5,-5.7 -24.9,-9.6 -40.2,-9.6c-32.5,0 -61.2,19.1 -76.5,45.9c24.9,7.7 45.9,23 63.1,42.1c15.3,-7.6 32.5,-11.5 49.7,-11.5c63.1,0 116.7,47.8 124.3,110.9c17.2,9.601 32.5,24.9 42.101,42.101c40.199,-1.9 72.699,-36.301 72.699,-76.5c1.901,-36.401 -22.999,-67.001 -57.399,-74.601z"/>
  <path id="svg_2" d="m459.1,322.35c0,-57.4 -47.8,-103.3 -105.199,-103.3c-21,0 -38.2,5.7 -55.5,15.3c-24.9,-32.5 -63.101,-53.5 -107.101,-53.5c-74.6,0 -133.9,59.3 -133.9,133.9l0,7.6c-34.4,15.3 -57.4,47.8 -57.4,88c0,53.5 42.1,95.601 95.6,95.601l325.1,0c53.5,0 95.6,-42.101 95.6,-95.601c0.2,-40.2 -22.8,-72.7 -57.2,-88z"/>
 </g>
</svg>